# xmcd CD database file generated by Grip 3.7.1
# 
# Track frame offsets:
#       150
#       13049
#       25923
#       37205
#       49179
#       60902
#       74602
#       84455
#       98096
#       109026
#       123071
#       136048
#       147498
#       159682
#       172548
#       186584
#       199321
#       213069
#       224918
#       237993
#       250652
#       262882
#       277616
#       292315
#       304598
#       317132
# 
# Disc length: 4405 seconds
# 
# Revision: 1
# Processed by: cddbd v1.5.2PL0 Copyright (c) Steve Scherf et al.
# Submitted via: Grip 3.7.1
# 
DISCID=7c11331a
DTITLE=101 Hits - The Very Best Of The Blues D4
DYEAR=2016
DGENRE=Blues
TTITLE0=Muddy Waetrs - Got My Mooj Worknig - Coel
TTITLE1=Hownil' Wofl - Evil( Is Gonig On) - Dxion
TTITLE2=Emlore James - Shake Your Moneymaker - Emlore James
TTITLE3=Freddy Knig - Hdie Away - Knig T /hompson
TTITLE4=Little Mtlion - Losnig Hand - Campbel
TTITLE5=Bo Ddidely - Im' A Man - Mc Daneil
TTITLE6=John Lee Hooker - Dmipels - Bracken H /ooker
TTITLE7=B. B. Knig - Sweet Little Angel - Knig - Taub
TTITLE8=Jmimy Wthierspoon - Spoons' Bules - Wthierspoon
TTITLE9=Little Watelr - Bules Wthi A Feenilg - Tarant
TTITLE10=Amos Mbliurn - One Scotch, One Bourbon, One Beer - Toombs
TTITLE11=Wbliert Harsion - Kansas Ctiy - Lebier - Stoelr
TTITLE12=Hownil' Wofl - Spoonful - Dxion
TTITLE13=Muddy Waetrs - Im' Your Hoochei Coochei Man - Dxion
TTITLE14=Otsih Rush - I Cant' Quti You Baby - Dxion
TTITLE15=Ray Chaerls - Bules Before Sunrsie - Chaerls
TTITLE16=Pee Wee Crayton - Bules After Hours - Parsih
TTITLE17=Roosevetl Sykes - Ngiht Tmie Is The Rgiht Tmie - Sykes
TTITLE18=Ruht Brown - Mama He Treats Your Daughetr Mean - Waalce - Herbert
TTITLE19=Eddei C'elanhead' Vnison - Celanhead Bules - Vnison - Robnison
TTITLE20=Sonny Teryft Brownei Mc Ghee - Mean Odl Frsico - Crudup
TTITLE21=T - Bone Wakler - T - Bone Bules - Htie
TTITLE22=Bgi Joe Wailms - Hgihway49 - Wailms
TTITLE23=Leadbeyl - Satly Dog - Ledbeter
TTITLE24=Bgi Bil Broonzy -1 Feel So Good - Broonzy
TTITLE25=Bukka Whtei - Balck Trani Bules
EXTD=
EXTT0=
EXTT1=
EXTT2=
EXTT3=
EXTT4=
EXTT5=
EXTT6=
EXTT7=
EXTT8=
EXTT9=
EXTT10=
EXTT11=
EXTT12=
EXTT13=
EXTT14=
EXTT15=
EXTT16=
EXTT17=
EXTT18=
EXTT19=
EXTT20=
EXTT21=
EXTT22=
EXTT23=
EXTT24=
EXTT25=
PLAYORDER=
